<svg xmlns="http://www.w3.org/2000/svg" width="256" height="256" viewBox="0 0 256 256">
  <metadata><?xpacket begin="﻿" id="W5M0MpCehiHzreSzNTczkc9d"?>
<x:xmpmeta xmlns:x="adobe:ns:meta/" x:xmptk="Adobe XMP Core 5.6-c142 79.160924, 2017/07/13-01:06:39        ">
   <rdf:RDF xmlns:rdf="http://www.w3.org/1999/02/22-rdf-syntax-ns#">
      <rdf:Description rdf:about=""/>
   </rdf:RDF>
</x:xmpmeta>
                                                                                                    
                                                                                                    
                                                                                                    
                                                                                                    
                                                                                                    
                                                                                                    
                                                                                                    
                                                                                                    
                                                                                                    
                                                                                                    
                                                                                                    
                                                                                                    
                                                                                                    
                                                                                                    
                                                                                                    
                                                                                                    
                                                                                                    
                                                                                                    
                                                                                                    
                                                                                                    
                           
<?xpacket end="w"?></metadata>
<defs>
    <style>
      .cls-1 {
        fill: #ffb804;
        fill-rule: evenodd;
      }
    </style>
  </defs>
  <path class="cls-1" d="M36.174,243.41L108.522,48.962s-7.879-7.628,2.782-26.579c18.467-32.824,57.178-13.177,34.783,22.383-6.278,9.969-19.478,13.989-19.478,13.989s-76.7,176.468-82.087,181.858S36.174,243.41,36.174,243.41Zm102.31-225.9c4.844,3.027,4.767,11.96-.173,19.953S125.439,49.483,120.6,46.456s-4.767-11.96.172-19.953S133.639,14.485,138.484,17.512Zm-6.31,42.641s7.054-1.193,11.13-5.6a146.749,146.749,0,0,0,9.739-12.59l52.87,193.049L203.13,250.4l-9.739-9.792S175.679,184.661,160,131.5c-8.361-28.351-19.741-50.279-25.043-53.158C136.25,67.222,132.174,60.153,132.174,60.153Zm3.664-40.276c3.094,1.8,2.675,8.343-.935,14.61s-9.044,9.888-12.138,8.087-2.675-8.343.935-14.61S132.744,18.075,135.838,19.877ZM6.957,158.076l43.13,34.973,9.739-25.18L23.652,139.891Zm102.956,48.962,51.478-55.956,8.348,26.579L112.7,244.809l-47.3-39.17,11.13-23.781ZM180.87,130.1s44.341-55.47,44.521-54.557,22.261,12.59,22.261,12.59l-58.435,68.547Z"/>
</svg>
