<svg xmlns="http://www.w3.org/2000/svg" width="256" height="256" viewBox="0 0 256 256">
  <metadata><?xpacket begin="﻿" id="W5M0MpCehiHzreSzNTczkc9d"?>
<x:xmpmeta xmlns:x="adobe:ns:meta/" x:xmptk="Adobe XMP Core 5.6-c142 79.160924, 2017/07/13-01:06:39        ">
   <rdf:RDF xmlns:rdf="http://www.w3.org/1999/02/22-rdf-syntax-ns#">
      <rdf:Description rdf:about=""/>
   </rdf:RDF>
</x:xmpmeta>
                                                                                                    
                                                                                                    
                                                                                                    
                                                                                                    
                                                                                                    
                                                                                                    
                                                                                                    
                                                                                                    
                                                                                                    
                                                                                                    
                                                                                                    
                                                                                                    
                                                                                                    
                                                                                                    
                                                                                                    
                                                                                                    
                                                                                                    
                                                                                                    
                                                                                                    
                                                                                                    
                           
<?xpacket end="w"?></metadata>
<defs>
    <style>
      .cls-1 {
        fill: #ffb804;
        fill-rule: evenodd;
      }
    </style>
  </defs>
  <path class="cls-1" d="M192.686,213.47c-50.6,40.159-119.377,37.681-153.616-5.534-16.342-20.627-21.838-46.806-17.642-72.9-3.609-3.626-8.7-9.349-7.506-11.734,0.938-1.878,5.286.389,9.252,3a116.57,116.57,0,0,1,4.3-13.764c-3.216-3.048-10.92-10.784-9.483-13.662,1.248-2.5,8.531,2.337,12.918,5.567a126.778,126.778,0,0,1,9.528-16.9c-3.476-3.352-10.244-10.383-8.889-13.095,1.338-2.678,9.6,3.064,13.808,6.231A134.2,134.2,0,0,1,56.387,68.022c-2.6-3.594-9.356-13.439-7.4-16.366,2-3,11,6.776,13.974,10.146,1.857-1.647,3.762-3.262,5.735-4.828,2.267-1.8,4.581-3.482,6.917-5.11-2.755-4.981-8.307-15.888-5.846-18.8,2.637-3.117,11.418,8.8,14.51,13.212a133.021,133.021,0,0,1,15.03-7.62c-3.087-6.128-7-15.179-4.746-17.912,2.721-3.3,11.448,8.485,15.222,13.933A124.723,124.723,0,0,1,127,30.312c-2.915-6.009-6.04-13.841-3.973-16.349,2.882-3.5,12.5,9.934,15.836,14.828a113.452,113.452,0,0,1,14.035-.21c-1.766-4.488-2.839-8.8-1.4-10.547,2.408-2.922,9.52,5.974,13.741,11.835a100.227,100.227,0,0,1,15,3.675c-1.007-3.239-1.363-6.046-.273-7.37,2.674-3.246,11.15,8.085,15.022,13.646a86.51,86.51,0,0,1,27.323,22.688C256.55,105.724,243.286,173.312,192.686,213.47ZM79.768,99.41c-16.174,17.459-24.858,38.432-24.776,57.242l22.182-17.717a45.055,45.055,0,0,1,9.672-27.579Zm10.42,67.478L64.554,186.534c0.585,0.767,1.195,1.52,1.835,2.254a45.378,45.378,0,0,0,17.843,12.4c-1.187-3.552-1.692-6.7-.518-8.123,2.348-2.85,9.169,5.54,13.421,11.394a69.151,69.151,0,0,0,18.524-.156c-2.755-5.841-5.425-12.942-3.476-15.308,2.57-3.12,10.5,7.222,14.549,12.97a92.451,92.451,0,0,0,11.406-4.039l-13.616-22.981C111.984,177.324,99.355,174.513,90.188,166.888Zm38.771-47.434c-3.346-4.206-11.047-3.64-17.2,1.264s-8.43,12.288-5.084,16.494,11.047,3.64,17.2-1.263S132.305,123.66,128.959,119.454ZM100.7,81.822l8.7,12.905a46.135,46.135,0,0,1,25.727-2.08L164.74,69C145.794,63.612,122.014,68.1,100.7,81.822Zm91.036,7.234L161.047,112.58c7.056,14.645,3.594,32.968-8.373,46.336l13.948,20.691q4.009-3.585,7.538-7.432c-2.826-5.919-5.682-13.321-3.683-15.747,1.86-2.259,6.533,2.544,10.508,7.549a96.877,96.877,0,0,0,10.338-17.2c-2.661-5.732-5.112-12.475-3.223-14.769,1.39-1.686,4.347.569,7.411,3.9C200.707,118.968,199.728,102.133,191.74,89.056Z"/>
</svg>
